<?xml version="1.0" encoding="UTF-8"?><svg id="_이어_2" xmlns="http://www.w3.org/2000/svg" viewBox="0 0 282.23 57.52"><defs><style>.cls-1{fill:#868686;}.cls-2{fill:#0e62c6;}.cls-3{fill:#135da6;}.cls-4{fill:#0a487c;}.cls-5{fill:#0fbad1;}</style></defs><g id="Layer_1"><g><path class="cls-3" d="M95.52,15.49h3.79v31.2h-3.79V29.87h-2.29c-.11,3.47-.71,6.07-1.81,7.82-1.1,1.75-2.72,2.62-4.87,2.62-2.26,0-3.93-.99-5.02-2.98-1.09-1.99-1.63-4.87-1.63-8.64s.54-6.73,1.61-8.67c1.07-1.94,2.75-2.91,5.04-2.91,2.06,0,3.62,.76,4.69,2.27,1.06,1.51,1.71,3.75,1.93,6.7h2.36V15.49Zm-6.22,13.19c0-2.49-.21-4.41-.62-5.78-.41-1.36-1.12-2.04-2.14-2.04s-1.67,.68-2.03,2.04c-.35,1.36-.53,3.29-.53,5.78s.18,4.45,.53,5.81c.35,1.36,1.03,2.04,2.03,2.04s1.73-.68,2.14-2.04c.41-1.36,.62-3.3,.62-5.81Zm15.99,18.81h-3.89V15.14h3.89V47.49Z"/><path class="cls-3" d="M136.84,39.36v3.63h-28.52v-3.63h28.52Zm-25.36-5.13v-3.59h3.89l-.23-8.13h4.12l.17,8.17h6.38l.23-8.17h4.12l-.37,8.13h3.99v3.59h-22.3Zm.53-12.77v-3.59h21.27v3.59h-21.27Z"/><path class="cls-3" d="M138.67,29.83h4.79c1.15,0,2.38-.02,3.69-.05,1.31-.04,2.64-.09,4-.17,1.36-.08,2.72-.18,4.07-.3,1.35-.12,2.64-.26,3.86-.42v3.39c-1.2,.19-2.47,.34-3.81,.47-1.34,.13-2.71,.24-4.11,.33v5.34h-3.99v-5.16c-.64,.02-1.27,.04-1.88,.05-.61,.01-1.2,.02-1.78,.02h-4.85v-3.49Zm18.45-7.82c0,.95-.19,1.83-.57,2.62-.38,.79-.91,1.48-1.6,2.06-.69,.58-1.51,1.03-2.48,1.34-.96,.31-2.04,.47-3.24,.47s-2.28-.16-3.26-.47c-.98-.31-1.8-.76-2.48-1.34-.68-.58-1.2-1.27-1.56-2.06-.37-.79-.55-1.66-.55-2.62s.18-1.83,.55-2.62c.37-.79,.89-1.48,1.56-2.06,.68-.58,1.5-1.03,2.48-1.34,.97-.31,2.06-.47,3.26-.47s2.28,.16,3.24,.47c.96,.31,1.79,.76,2.48,1.34,.69,.58,1.22,1.27,1.6,2.06,.38,.79,.57,1.66,.57,2.62Zm7.74,24.85h-21.44v-7.75h3.99v4.12h17.45v3.63Zm-11.87-24.85c0-.37-.06-.75-.18-1.13-.12-.38-.32-.73-.6-1.03-.28-.3-.66-.55-1.15-.73-.49-.19-1.1-.28-1.83-.28s-1.33,.09-1.81,.28c-.48,.19-.85,.43-1.13,.73-.28,.3-.47,.65-.58,1.03s-.17,.76-.17,1.13,.06,.75,.17,1.13,.3,.73,.58,1.03c.28,.3,.65,.55,1.13,.73,.48,.19,1.08,.28,1.81,.28s1.34-.09,1.83-.28c.49-.19,.87-.43,1.15-.73,.28-.3,.48-.65,.6-1.03,.12-.38,.18-.76,.18-1.13Zm7.28,18.67v-2.9h-6.22v-3.28h6.22V15.14h4.09v25.55h-4.09Z"/><path class="cls-1" d="M169.71,40.72l-2.99-2.51c1.4-1.09,2.66-2.3,3.81-3.63,1.14-1.33,2.1-2.84,2.88-4.54,.78-1.7,1.34-3.61,1.7-5.74,.35-2.13,.45-4.54,.3-7.24h4.25c.04,1.56,0,3.04-.12,4.43-.12,1.4-.31,2.73-.55,4.01,.86,2.51,1.99,4.71,3.39,6.6,1.4,1.88,3.14,3.57,5.22,5.06l-2.76,2.93c-3.21-2.37-5.73-5.37-7.55-9-.84,1.98-1.9,3.76-3.17,5.34-1.27,1.58-2.74,3.01-4.4,4.29Zm19.44-25.58h4.12V47.49h-4.12V15.14Z"/><path class="cls-1" d="M208.97,34.89v12.42h-4.09v-12.42h-7.61v-3.66h19.25c.13-.77,.25-1.56,.37-2.37,.11-.81,.22-1.62,.33-2.41-1.33,.19-2.69,.32-4.07,.4-1.38,.08-2.84,.12-4.37,.12h-7.81v-3.49h8.41c1.48,0,2.88-.03,4.17-.09,1.3-.06,2.63-.17,4.01-.33,.04-.56,.08-1.08,.1-1.57,.02-.49,.03-.94,.03-1.36h-16.22v-3.59h20.31c0,1.23-.03,2.5-.1,3.8-.07,1.3-.16,2.59-.28,3.86-.12,1.27-.26,2.5-.42,3.68-.16,1.19-.31,2.3-.47,3.35h5.28v3.66h-6.85v12.42h-4.12v-12.42h-5.85Z"/><path class="cls-1" d="M232.8,36.43h3.16c2.02,0,3.99-.13,5.92-.4,1.93-.27,3.72-.6,5.38-.99v3.56c-.75,.21-1.62,.4-2.59,.58-.98,.17-2,.33-3.07,.45-1.08,.13-2.18,.23-3.31,.31-1.13,.08-2.23,.12-3.29,.12h-6.35v-13.33h9.74v-5.41h-9.77v-3.66h13.96v12.7h-9.77v6.07Zm15.66-21.29h4.12V47.49h-4.12V15.14Z"/><path class="cls-1" d="M264.74,39.64h-6.45V17.69h14.69v3.59h-10.6v5.51h10.2v3.59h-10.2v5.65h3.29c1.62,0,3.39-.11,5.32-.33,1.93-.22,3.9-.56,5.92-1.03v3.52c-.91,.26-1.87,.47-2.88,.65-1.01,.17-2.04,.32-3.09,.44-1.05,.12-2.1,.2-3.14,.26-1.04,.06-2.06,.09-3.06,.09Zm13.36-24.5h4.12V47.49h-4.12V15.14Z"/></g><path class="cls-5" d="M65.51,18.98c-1.26-3.54-3.17-6.73-5.69-9.49-2.43-2.66-5.32-4.79-8.59-6.35S44.49,.7,40.89,.49c-3.72-.22-7.41,.31-10.95,1.57-.06,.02-.12,.05-.18,.07,1.4-.12,2.82-.14,4.24-.06,3.8,.22,7.48,1.17,10.93,2.81s6.51,3.9,9.08,6.71c2.66,2.91,4.69,6.28,6.02,10.03,1.33,3.75,1.89,7.64,1.66,11.58-.22,3.8-1.17,7.48-2.81,10.93-1.55,3.25-3.64,6.14-6.22,8.62,1.96-1.07,3.77-2.36,5.43-3.88,2.66-2.43,4.79-5.32,6.35-8.59,1.55-3.27,2.45-6.75,2.66-10.34,.22-3.72-.31-7.41-1.57-10.95Z"/><path class="cls-2" d="M56.31,20.54c-1.11-3.72-2.92-7.11-5.37-10.08-2.37-2.87-5.23-5.22-8.52-6.99-3.28-1.77-6.82-2.88-10.52-3.29-3.83-.42-7.65-.07-11.37,1.04-3.72,1.11-7.11,2.92-10.08,5.37-2.87,2.37-5.22,5.23-6.99,8.52C1.69,18.38,.58,21.92,.17,25.61c-.42,3.83-.07,7.65,1.04,11.37,1.11,3.72,2.92,7.11,5.37,10.08,2.37,2.87,5.23,5.22,8.52,6.99,3.28,1.77,6.82,2.88,10.52,3.29,3.4,.38,6.81,.14,10.14-.7-11.93,1.64-23.6-5.61-27.15-17.51-3.92-13.15,3.55-26.99,16.7-30.91,13.15-3.92,26.99,3.55,30.91,16.7,.78,2.61,1.1,5.24,1.03,7.82,.04-.28,.08-.56,.11-.84,.42-3.83,.07-7.65-1.04-11.37Z"/><path class="cls-4" d="M31.15,17.61l-2.66,8.99c1.84-.03,3.04-.1,3.6-.22,.9-.18,1.72-.56,2.46-1.15,.74-.59,1.36-1.39,1.85-2.43h.7l-2.87,9.94h-.72c.12-.61,.18-1.11,.18-1.48,0-.75-.15-1.35-.46-1.8-.31-.45-.7-.76-1.18-.92-.48-.16-1.81-.27-3.98-.31l-2.2,7.67-.45,1.53c-.06,.3-.09,.6-.09,.9,0,.42,.08,.75,.25,.99,.16,.24,.43,.43,.79,.56,.36,.13,1.05,.21,2.07,.22l-.3,.98H15.88l.3-.98c1.18,0,2.05-.22,2.59-.66,.54-.44,1.03-1.41,1.46-2.89l4.39-15.02c.46-1.57,.7-2.59,.72-3.04-.01-.42-.21-.78-.57-1.08-.37-.3-1.11-.47-2.24-.52l.32-1.23h20.06l-1.78,7.05h-.67c-.06-1.36-.27-2.37-.62-3.02-.35-.65-.93-1.16-1.73-1.53-.8-.37-2.09-.55-3.86-.55h-3.08Z"/><path class="cls-4" d="M48.44,28.45l-4.45,15.35c-.24,.82-.36,1.34-.36,1.55s.09,.44,.26,.67c.17,.23,.35,.38,.55,.45,.19,.07,.79,.13,1.78,.19l-.36,1.17h-11.37l.35-1.17c.95-.01,1.6-.09,1.96-.23,.36-.14,.66-.37,.9-.68,.23-.31,.5-.96,.79-1.96l2.44-8.44c.41-1.41,.62-2.16,.63-2.24,.06-.24,.09-.47,.09-.68,0-.41-.13-.74-.38-.98-.25-.25-.61-.37-1.08-.37-.23,0-.68,.04-1.37,.12l.06-1.06,7.79-1.69h1.76Z"/></g></svg>