<?xml version="1.0" encoding="utf-8"?>
<!-- Generator: Adobe Illustrator 28.1.0, SVG Export Plug-In . SVG Version: 6.00 Build 0)  -->
<svg version="1.1" id="레이어_1" xmlns="http://www.w3.org/2000/svg" xmlns:xlink="http://www.w3.org/1999/xlink" x="0px"
	 y="0px" viewBox="0 0 192.76 144.57" style="enable-background:new 0 0 192.76 144.57;" xml:space="preserve">
<style type="text/css">
	.st0{fill:#FFFFFF;}
	.st1{fill:#0097E0;}
</style>
<g>
	<path class="st0" d="M98.82,22.46c-10.53,0-19.1,8.57-19.1,19.11c0,0.16,0.02,0.32,0.02,0.48h-0.02V65.9v9.45
		c2.5,1.42,5.17,2.55,7.98,3.39v-8.29V57.07c3.14,2.26,6.97,3.6,11.12,3.6c10.54,0,19.1-8.57,19.1-19.1
		C117.92,31.03,109.35,22.46,98.82,22.46 M98.82,52.69c-6.13,0-11.12-4.99-11.12-11.12c0-6.13,4.99-11.12,11.12-11.12
		c6.13,0,11.12,4.99,11.12,11.12C109.94,47.7,104.95,52.69,98.82,52.69"/>
	<path class="st1" d="M98.82,72.58c-3.09,0-6.07-0.47-8.89-1.31v8.1c2.86,0.67,5.83,1.06,8.89,1.06c14.49,0,27.12-7.98,33.8-19.76
		h-9.42C117.52,67.91,108.71,72.58,98.82,72.58"/>
	<path class="st1" d="M98.82,2.7c-21.43,0-38.86,17.43-38.86,38.86c0,13.56,6.98,25.5,17.53,32.46V64.02
		c-5.94-5.66-9.68-13.62-9.68-22.45c0-17.09,13.91-31.01,31.01-31.01c9.89,0,18.7,4.67,24.38,11.91h9.42
		C125.93,10.68,113.3,2.7,98.82,2.7"/>
	<path class="st0" d="M27.45,132.79c-0.85,0.65-1.77,1.21-2.75,1.69c-0.98,0.48-2.06,0.84-3.23,1.08c-1.17,0.25-2.46,0.37-3.88,0.37
		c-2.22,0-4.27-0.41-6.15-1.21c-1.88-0.81-3.5-1.91-4.87-3.31c-1.37-1.4-2.45-3.05-3.23-4.96c-0.78-1.9-1.17-3.96-1.17-6.15
		c0-2.16,0.38-4.2,1.15-6.11c0.77-1.9,1.84-3.57,3.23-5c1.39-1.43,3.03-2.55,4.94-3.38c1.91-0.82,4.01-1.23,6.32-1.23
		c1.39,0,2.65,0.11,3.79,0.35c1.14,0.23,2.19,0.55,3.14,0.97c0.95,0.42,1.83,0.92,2.64,1.5c0.81,0.58,1.57,1.21,2.29,1.9l-3.42,3.94
		c-1.21-1.12-2.5-2.03-3.86-2.73c-1.36-0.69-2.9-1.04-4.63-1.04c-1.44,0-2.78,0.28-4.01,0.84c-1.23,0.56-2.29,1.33-3.18,2.3
		c-0.9,0.97-1.59,2.1-2.08,3.4c-0.49,1.3-0.74,2.7-0.74,4.2c0,1.5,0.24,2.91,0.74,4.22c0.49,1.31,1.18,2.46,2.08,3.44
		c0.89,0.98,1.96,1.75,3.18,2.32s2.56,0.84,4.01,0.84c1.85,0,3.43-0.35,4.76-1.06c1.33-0.71,2.64-1.67,3.94-2.88l3.42,3.46
		C29.12,131.4,28.3,132.14,27.45,132.79"/>
	<path class="st0" d="M54.47,128.61c-0.62,1.45-1.47,2.71-2.55,3.79c-1.08,1.08-2.38,1.94-3.88,2.58c-1.5,0.63-3.13,0.95-4.89,0.95
		c-1.73,0-3.34-0.31-4.83-0.93c-1.49-0.62-2.77-1.47-3.85-2.55c-1.08-1.08-1.93-2.34-2.53-3.77c-0.6-1.43-0.91-2.97-0.91-4.61
		c0-1.65,0.31-3.2,0.93-4.65c0.62-1.46,1.47-2.73,2.55-3.81c1.08-1.08,2.37-1.94,3.85-2.58c1.49-0.63,3.11-0.95,4.87-0.95
		c1.76,0,3.38,0.31,4.87,0.93s2.77,1.47,3.85,2.56c1.08,1.08,1.93,2.34,2.53,3.79c0.61,1.44,0.91,2.99,0.91,4.63
		C55.4,125.63,55.09,127.17,54.47,128.61 M49.61,121.21c-0.35-0.89-0.83-1.68-1.44-2.36c-0.62-0.68-1.35-1.21-2.2-1.6
		s-1.79-0.58-2.82-0.58c-1.03,0-1.97,0.19-2.82,0.58c-0.85,0.39-1.57,0.92-2.17,1.58c-0.6,0.66-1.06,1.44-1.38,2.32
		c-0.32,0.88-0.47,1.83-0.47,2.84c0,1.01,0.17,1.97,0.52,2.88c0.34,0.91,0.82,1.7,1.44,2.36c0.62,0.66,1.35,1.19,2.19,1.58
		c0.85,0.39,1.77,0.59,2.78,0.59c1.06,0,2.02-0.2,2.86-0.59c0.85-0.39,1.57-0.92,2.17-1.58c0.6-0.66,1.06-1.44,1.38-2.32
		c0.32-0.88,0.47-1.83,0.47-2.84C50.12,123.06,49.95,122.1,49.61,121.21"/>
	<path class="st0" d="M80.88,113.19c1.26-0.74,2.75-1.11,4.48-1.11c2.51,0,4.48,0.76,5.89,2.27c1.42,1.52,2.12,3.67,2.12,6.47v14.59
		H88.1v-12.96c0-1.82-0.4-3.2-1.21-4.15c-0.81-0.95-1.94-1.43-3.41-1.43c-1.44,0-2.61,0.48-3.51,1.45c-0.9,0.96-1.36,2.37-1.36,4.21
		v12.87h-5.28v-13c0-1.79-0.4-3.15-1.21-4.1c-0.81-0.95-1.94-1.43-3.41-1.43c-1.47,0-2.64,0.5-3.53,1.51
		c-0.89,1.01-1.34,2.4-1.34,4.19v12.83h-5.28v-22.86h5.28v3.5c0.38-0.52,0.78-1.02,1.21-1.49c0.43-0.47,0.93-0.89,1.49-1.27
		c0.56-0.38,1.2-0.68,1.91-0.9c0.71-0.22,1.49-0.33,2.36-0.33c1.64,0,3.04,0.37,4.17,1.11c1.14,0.74,2.01,1.73,2.62,2.95
		C78.53,114.91,79.62,113.93,80.88,113.19"/>
	<path class="st0" d="M120.29,129.05c-0.59,1.47-1.39,2.72-2.38,3.74c-1,1.03-2.14,1.8-3.42,2.32c-1.28,0.52-2.61,0.78-3.96,0.78
		c-1.88,0-3.43-0.4-4.68-1.21c-1.24-0.81-2.27-1.75-3.08-2.81l0.04,10.48h-5.28v-29.79h5.28v3.81c0.84-1.21,1.87-2.23,3.11-3.05
		c1.24-0.82,2.78-1.23,4.62-1.23c1.35,0,2.66,0.26,3.93,0.78c1.27,0.52,2.4,1.29,3.39,2.32c0.99,1.02,1.79,2.27,2.4,3.74
		c0.6,1.47,0.91,3.16,0.91,5.07S120.89,127.57,120.29,129.05 M115.38,120.93c-0.35-0.91-0.82-1.68-1.41-2.32
		c-0.59-0.63-1.28-1.13-2.08-1.47c-0.79-0.35-1.64-0.52-2.53-0.52c-0.89,0-1.75,0.17-2.55,0.52c-0.81,0.35-1.52,0.85-2.12,1.49
		c-0.61,0.65-1.09,1.42-1.45,2.32c-0.36,0.9-0.54,1.91-0.54,3.03c0,1.13,0.18,2.14,0.54,3.03c0.36,0.89,0.84,1.67,1.45,2.32
		c0.6,0.65,1.31,1.15,2.12,1.5c0.81,0.35,1.66,0.52,2.55,0.52c0.9,0,1.74-0.17,2.53-0.52c0.79-0.35,1.49-0.84,2.08-1.47
		c0.59-0.63,1.06-1.41,1.41-2.32c0.35-0.91,0.52-1.93,0.52-3.05C115.9,122.85,115.73,121.84,115.38,120.93"/>
	<rect x="124.69" y="103.8" class="st0" width="5.28" height="31.61"/>
	<path class="st0" d="M134.69,104.06h5.67v4.98h-5.67V104.06z M134.91,112.55h5.28v22.86h-5.28V112.55z"/>
	<path class="st0" d="M150.11,135.41h-5.28v-22.86h5.28v3.59c0.37-0.55,0.78-1.07,1.23-1.55c0.45-0.48,0.96-0.91,1.55-1.29
		s1.24-0.68,1.94-0.9c0.71-0.22,1.5-0.33,2.4-0.33c2.59,0,4.59,0.79,6,2.38c1.41,1.59,2.12,3.73,2.12,6.41v14.55h-5.28v-12.96
		c0-1.78-0.42-3.16-1.27-4.13s-2.04-1.45-3.59-1.45c-1.52,0-2.75,0.5-3.69,1.49c-0.95,0.99-1.42,2.38-1.42,4.17V135.41z"/>
	<path class="st0" d="M175.74,130.15c1.18,1,2.63,1.5,4.33,1.5c1.3,0,2.42-0.23,3.38-0.69c0.95-0.46,1.89-1.14,2.82-2.04l3.07,2.73
		c-1.1,1.3-2.4,2.34-3.92,3.12c-1.52,0.78-3.33,1.17-5.43,1.17c-1.65,0-3.18-0.29-4.61-0.87c-1.43-0.58-2.67-1.39-3.72-2.43
		c-1.05-1.04-1.88-2.29-2.49-3.75c-0.61-1.46-0.91-3.08-0.91-4.87c0-1.65,0.27-3.19,0.82-4.63c0.55-1.44,1.32-2.71,2.32-3.79
		c1-1.08,2.17-1.94,3.53-2.58c1.36-0.63,2.86-0.95,4.5-0.95c1.82,0,3.41,0.33,4.78,1c1.37,0.66,2.51,1.56,3.42,2.68
		c0.91,1.13,1.6,2.44,2.06,3.94c0.46,1.5,0.69,3.08,0.69,4.72c0,0.23-0.01,0.46-0.02,0.69c-0.02,0.23-0.04,0.48-0.07,0.74h-16.8
		C173.81,127.72,174.56,129.15,175.74,130.15 M185.18,122.38c-0.09-0.84-0.27-1.62-0.56-2.36c-0.29-0.74-0.68-1.37-1.17-1.91
		c-0.49-0.53-1.08-0.96-1.75-1.28c-0.68-0.32-1.45-0.48-2.32-0.48c-1.62,0-2.95,0.56-4.01,1.67c-1.05,1.11-1.7,2.56-1.93,4.35
		H185.18z"/>
</g>
</svg>
