<?xml version="1.0" encoding="utf-8"?>
<!-- Generator: Adobe Illustrator 28.1.0, SVG Export Plug-In . SVG Version: 6.00 Build 0)  -->
<svg version="1.1" id="레이어_1" xmlns="http://www.w3.org/2000/svg" xmlns:xlink="http://www.w3.org/1999/xlink" x="0px"
	 y="0px" viewBox="0 0 202 52.99" style="enable-background:new 0 0 202 52.99;" xml:space="preserve">
<style type="text/css">
	.st0{fill:#1A8DCE;}
	.st1{fill:#3E3A39;}
</style>
<g>
	<g>
		<path class="st0" d="M36.83,36.76h-5.4V23.8c0-4.15-3.37-7.52-7.52-7.52s-7.51,3.37-7.51,7.52v12.96H11V23.8
			c0-7.12,5.79-12.91,12.91-12.91s12.91,5.79,12.91,12.91v12.96H36.83z"/>
		<rect x="1.44" y="10.95" class="st0" width="5.39" height="25.81"/>
		<path class="st0" d="M7.35,5.49c0,1.78-1.44,3.22-3.22,3.22S0.91,7.27,0.91,5.49c0-1.78,1.44-3.22,3.22-3.22
			C5.91,2.27,7.35,3.71,7.35,5.49"/>
		<path class="st0" d="M53.91,16.29V10.9H46.4V3.57h-5.4v20.24c0,7.12,5.79,12.91,12.91,12.91v-5.4c-4.14,0-7.51-3.37-7.51-7.52
			v-7.52h7.51V16.29z"/>
	</g>
	<g>
		<path class="st1" d="M71.55,10.89c-2.81,0-5.4,0.91-7.52,2.44V3.57h-5.39v20.18l0,0c0,0.02,0,0.03,0,0.05
			c0,7.12,5.79,12.91,12.91,12.91s12.91-5.79,12.91-12.91C84.47,16.68,78.68,10.89,71.55,10.89 M71.55,31.32
			c-4.15,0-7.52-3.37-7.52-7.52c0-4.14,3.37-7.52,7.52-7.52c4.15,0,7.52,3.37,7.52,7.52S75.7,31.32,71.55,31.32"/>
		<path class="st1" d="M188.18,36.72c-7.12,0-12.91-5.79-12.91-12.91s5.79-12.91,12.91-12.91c7.12,0,12.91,5.79,12.91,12.91v2.7
			h-19.93c1.09,2.81,3.82,4.82,7.02,4.82L188.18,36.72L188.18,36.72z M181.17,21.1h14.03c-1.09-2.82-3.82-4.82-7.02-4.82
			C184.99,16.29,182.26,18.29,181.17,21.1"/>
		<path class="st1" d="M141.11,3.56h-5.4v9.76c-2.12-1.53-4.71-2.43-7.52-2.43c-7.12,0-12.91,5.79-12.91,12.91
			s5.79,12.91,12.91,12.91c7.12,0,12.91-5.79,12.91-12.91c0-0.01,0-0.03,0-0.05l0,0L141.11,3.56L141.11,3.56z M128.2,31.32
			c-4.14,0-7.52-3.37-7.52-7.52c0-4.14,3.37-7.52,7.52-7.52c4.14,0,7.52,3.37,7.52,7.52C135.71,27.95,132.34,31.32,128.2,31.32"/>
		<path class="st1" d="M94.03,13.32v-2.37h-5.4v25.81h5.4V23.8c0-4.14,3.37-7.51,7.52-7.51v-5.4C98.74,10.89,96.15,11.8,94.03,13.32
			"/>
		<rect x="105.72" y="10.95" class="st1" width="5.39" height="25.81"/>
		<path class="st1" d="M111.63,5.49c0,1.78-1.44,3.22-3.22,3.22c-1.77,0-3.21-1.44-3.21-3.22c0-1.78,1.44-3.22,3.21-3.22
			C110.19,2.27,111.63,3.71,111.63,5.49"/>
		<path class="st1" d="M158.18,10.89c-7.12,0-12.91,5.79-12.91,12.91s5.79,12.91,12.91,12.91c2.81,0,5.4-0.91,7.52-2.44v4.42
			c0,4.14-3.37,7.52-7.52,7.52v5.4c7.12,0,12.91-5.79,12.91-12.91v-14.9C171.1,16.68,165.31,10.89,158.18,10.89 M158.18,31.32
			c-4.14,0-7.52-3.37-7.52-7.52c0-4.14,3.37-7.52,7.52-7.52c4.14,0,7.52,3.37,7.52,7.52S162.34,31.32,158.18,31.32"/>
	</g>
</g>
</svg>
