<?xml version="1.0" encoding="utf-8"?>
<!-- Generator: Adobe Illustrator 28.1.0, SVG Export Plug-In . SVG Version: 6.00 Build 0)  -->
<svg version="1.1" id="레이어_1" xmlns="http://www.w3.org/2000/svg" xmlns:xlink="http://www.w3.org/1999/xlink" x="0px"
	 y="0px" viewBox="0 0 7920 2520" style="enable-background:new 0 0 7920 2520;" xml:space="preserve">
<style type="text/css">
	.st0{fill:#2485BF;}
	.st1{fill:#FFFFFF;}
</style>
<g>
	<g>
		<path class="st0" d="M2371.48,1417.9h-132.26v-317.44c0-101.65-82.54-184.19-184.19-184.19c-101.65,0-183.95,82.54-183.95,184.19
			v317.44h-132.26v-317.44c0-174.39,141.82-316.21,316.21-316.21c174.39,0,316.21,141.82,316.21,316.21v317.44H2371.48z"/>
		<rect x="1504.65" y="785.72" class="st0" width="132.02" height="632.18"/>
		<path class="st0" d="M1649.65,651.74c0,43.6-35.27,78.87-78.87,78.87c-43.6,0-78.87-35.27-78.87-78.87
			c0-43.6,35.27-78.87,78.87-78.87C1614.38,573.12,1649.65,608.39,1649.65,651.74"/>
		<path class="st0" d="M2789.83,916.27V784.25h-183.95V604.72h-132.26v495.75c0,174.39,141.82,316.21,316.21,316.21v-132.26
			c-101.4,0-183.95-82.54-183.95-184.19V916.03h183.95V916.27z"/>
	</g>
	<g>
		<path class="st1" d="M3222.14,784.01c-68.83,0-132.26,22.29-184.19,59.76V604.72h-132.02v494.52l0,0c0,0.49,0,0.73,0,1.22
			c0,174.39,141.82,316.21,316.21,316.21s316.21-141.82,316.21-316.21C3538.35,926.07,3396.53,784.01,3222.14,784.01
			 M3222.14,1284.41c-101.65,0-184.19-82.54-184.19-184.19c0-101.4,82.54-184.19,184.19-184.19s184.19,82.54,184.19,184.19
			C3406.33,1201.87,3323.78,1284.41,3222.14,1284.41"/>
		<path class="st1" d="M6078.81,1416.67c-174.39,0-316.21-141.82-316.21-316.21s141.82-316.21,316.21-316.21
			s316.21,141.82,316.21,316.21v66.13h-488.16c26.7,68.83,93.57,118.06,171.94,118.06V1416.67z M5907.11,1034.33h343.64
			c-26.7-69.07-93.57-118.06-171.94-118.06C6000.67,916.27,5933.56,965.26,5907.11,1034.33"/>
		<path class="st1" d="M4925.66,604.72h-132.26v239.06c-51.93-37.47-115.36-59.52-184.19-59.52
			c-174.39,0-316.21,141.82-316.21,316.21s141.82,316.21,316.21,316.21s316.21-141.82,316.21-316.21c0-0.24,0-0.73,0-1.22l0,0
			V604.72H4925.66z M4609.44,1284.41c-101.4,0-184.19-82.54-184.19-184.19c0-101.4,82.54-184.19,184.19-184.19
			c101.4,0,184.19,82.54,184.19,184.19C4793.64,1201.87,4711.09,1284.41,4609.44,1284.41"/>
		<path class="st1" d="M3772.75,843.77v-58.05h-132.26v632.18h132.26v-317.44c0-101.4,82.54-183.95,184.19-183.95V784.25
			C3888.11,784.01,3824.67,806.3,3772.75,843.77"/>
		<rect x="4058.83" y="785.72" class="st1" width="132.02" height="632.18"/>
		<path class="st1" d="M4203.83,651.74c0,43.6-35.27,78.87-78.87,78.87c-43.35,0-78.62-35.27-78.62-78.87
			c0-43.6,35.27-78.87,78.62-78.87C4168.56,573.12,4203.83,608.39,4203.83,651.74"/>
		<path class="st1" d="M5344.25,784.01c-174.39,0-316.21,141.82-316.21,316.21s141.82,316.21,316.21,316.21
			c68.83,0,132.26-22.29,184.19-59.76v108.26c0,101.4-82.54,184.19-184.19,184.19v132.26c174.39,0,316.21-141.82,316.21-316.21
			v-364.95C5660.46,926.07,5518.64,784.01,5344.25,784.01 M5344.25,1284.41c-101.4,0-184.19-82.54-184.19-184.19
			c0-101.4,82.54-184.19,184.19-184.19c101.4,0,184.19,82.54,184.19,184.19C5528.19,1201.87,5445.65,1284.41,5344.25,1284.41"/>
	</g>
	<g>
		<path class="st1" d="M3105.06,1800.24c-17.88,0-34.05-2.94-48.99-9.31c-14.7-6.12-27.19-14.21-37.23-24.25
			c-10.04-10.04-18.12-21.31-23.76-33.8c-5.63-12.74-8.33-25.47-8.33-38.45v-31.6c0-12.98,2.69-25.72,8.33-38.45
			c5.63-12.49,13.47-24,23.76-33.8c10.04-10.04,22.53-18.13,37.23-24.25c14.7-6.12,31.11-9.31,48.99-9.31
			c17.88,0,34.05,3.18,48.99,9.31c14.7,6.12,27.19,14.21,37.23,24.25c10.04,10.04,18.12,21.31,23.76,33.8
			c5.63,12.74,8.33,25.47,8.33,38.45v31.6c0,12.98-2.69,25.72-8.33,38.45c-5.63,12.49-13.47,24-23.76,33.8
			c-10.29,10.04-22.53,18.13-37.23,24.25C3139.35,1797.06,3122.94,1800.24,3105.06,1800.24z M3105.06,1590.58
			c-12.25,0-23.51,2.2-33.56,6.37c-10.29,4.16-18.86,9.8-25.96,16.9c-7.1,7.1-12.74,14.94-16.9,24.25
			c-3.92,9.06-6.12,18.62-6.12,28.41v25.23c0,9.8,1.96,19.35,6.12,28.41c3.92,9.06,9.55,17.15,16.9,24.25
			c7.1,7.1,15.92,12.49,25.96,16.9c10.04,4.16,21.31,6.37,33.56,6.37c12.25,0,23.51-2.2,33.56-6.37c10.04-4.16,18.86-9.8,25.96-16.9
			c7.1-7.1,12.74-15.19,16.9-24.25c3.92-9.06,6.12-18.61,6.12-28.41v-25.23c0-9.8-1.96-19.35-6.12-28.41
			c-3.92-9.06-9.55-17.15-16.9-24.25c-7.1-7.1-15.92-12.74-25.96-16.9C3128.57,1592.54,3117.55,1590.58,3105.06,1590.58z
			 M3105.06,1978.31h268.45v32.58h-305.68v-157h37.23C3105.06,1853.88,3105.06,1978.31,3105.06,1978.31z M3361.5,1880.09h-36.74
			v-343.64h36.74V1880.09z"/>
		<path class="st1" d="M3860.19,1916.83v32.09h-441.37v-32.09H3860.19z M3801.41,1824.98h-317.93v-249.1h313.76v31.6h-277.51v77.15
			h274.82v31.6h-274.82v77.15h281.67V1824.98z"/>
		<path class="st1" d="M4314.3,1916.83v32.09h-441.37v-32.09H4314.3z M4249.15,1574.66v239.06h-311.07v-239.06h36.25v85.24h238.57
			v-85.24H4249.15z M4212.9,1782.85v-90.87h-238.57v90.87H4212.9z"/>
		<path class="st1" d="M4397.33,1764.97c27.43,0,51.68-0.24,73.24-0.49c21.55-0.24,41.15-0.98,59.03-1.47
			c17.88-0.73,34.54-1.71,50.21-2.94c15.68-1.22,31.35-2.69,47.03-4.41l3.18,32.58c-14.45,1.71-29.88,3.43-46.29,4.65
			c-16.41,1.47-35.27,2.45-56.58,3.18c-21.31,0.73-45.31,1.22-72.26,1.47c-26.94,0.24-58.29,0.49-94.05,0.49v-134.96h171.94v-70.3
			h-171.94v-32.58h208.19v134.47h-171.94v70.3H4397.33z M4553.84,1833.31h36.74v30.37c0,10.78,0.98,20.08,2.94,27.92
			c1.96,7.84,5.14,14.7,9.55,20.82c4.41,6.12,10.04,11.76,17.15,16.66c7.1,4.9,15.68,10.04,25.72,15.19
			c13.72,7.1,29.64,14.45,47.76,22.53c18.12,8.08,35.27,15.19,50.95,21.55l-15.19,29.88c-17.15-7.1-34.29-14.7-51.44-22.78
			c-17.15-8.33-31.6-15.43-43.6-21.31c-35.03-17.64-55.6-32.82-61.97-45.8c-6.37,12.98-26.94,28.17-61.97,45.8
			c-12,5.88-26.45,12.98-43.6,21.31c-17.15,8.33-34.29,15.92-51.44,22.78l-15.68-29.88c7.59-3.18,15.92-6.61,24.98-10.29
			c8.82-3.67,17.64-7.35,26.21-11.27c8.57-3.92,16.9-7.59,25.23-11.51c8.33-3.92,15.92-7.59,22.78-11.02
			c9.8-4.9,18.12-9.8,24.98-14.7c6.86-4.9,12.49-10.53,17.15-16.66s7.84-13.23,10.04-21.06c2.2-7.84,3.18-17.15,3.18-28.17v-30.37
			H4553.84z M4723.58,1842.86h-36.74v-306.41h36.74V1842.86z"/>
		<path class="st1" d="M5067.72,1613.11h-108.75v76.66c0,10.29,0.25,18.86,0.98,26.21c0.73,7.35,2.2,14.45,4.16,21.06
			c2.2,6.61,5.14,13.23,9.31,19.59c3.92,6.37,9.55,13.72,16.66,21.8c10.04,12,22.78,25.47,38.21,40.41
			c15.19,15.19,32.58,31.35,52.17,48.99l-24.25,24.74c-18.12-16.9-33.8-31.84-47.03-45.31c-13.23-13.23-24.98-25.47-35.52-36.74
			c-7.59-8.08-14.7-15.68-21.06-23.02c-6.37-7.35-10.29-12.74-11.51-16.17h-0.49c-0.73,2.45-2.45,5.63-4.9,9.55
			c-2.69,3.92-5.88,8.08-9.55,12.74c-3.67,4.65-7.59,9.31-11.76,13.96c-4.16,4.65-8.33,9.31-12,13.47
			c-3.43,3.92-8.33,8.82-14.21,14.94c-5.88,6.12-12.49,12.74-19.6,20.08c-7.1,7.1-14.94,14.7-23.02,22.53
			c-8.33,7.84-16.17,15.19-24,21.8l-24.74-24.74c16.9-14.7,32.58-29.15,47.03-43.6c14.45-14.45,27.92-28.41,40.17-42.13
			c8.33-9.55,14.94-17.88,20.08-25.47c4.9-7.59,8.57-14.94,11.27-22.29c2.69-7.35,4.41-14.94,5.14-22.53
			c0.98-7.59,1.23-16.66,1.23-26.7v-79.85h-110.47v-32.58h256.45L5067.72,1613.11L5067.72,1613.11z M5182.84,2016.76h-37.23v-480.32
			h37.23V2016.76z"/>
	</g>
</g>
</svg>
