<?xml version="1.0" encoding="utf-8"?>
<!-- Generator: Adobe Illustrator 28.1.0, SVG Export Plug-In . SVG Version: 6.00 Build 0)  -->
<svg version="1.1" id="레이어_1" xmlns="http://www.w3.org/2000/svg" xmlns:xlink="http://www.w3.org/1999/xlink" x="0px"
	 y="0px" viewBox="0 0 202 90" style="enable-background:new 0 0 202 90;" xml:space="preserve">
<style type="text/css">
	.st0{fill:#1A8DCE;}
	.st1{fill:#3E3A39;}
	.st2{fill:#C8C9CA;}
	.st3{fill:url(#SVGID_1_);}
</style>
<g>
	<g>
		<path class="st0" d="M36.82,64.51h-5.4V51.55c0-4.15-3.37-7.52-7.52-7.52c-4.15,0-7.51,3.37-7.51,7.52v12.96h-5.4V51.55
			c0-7.12,5.79-12.91,12.91-12.91c7.12,0,12.91,5.79,12.91,12.91V64.51z"/>
		<rect x="1.43" y="38.7" class="st0" width="5.39" height="25.81"/>
		<path class="st0" d="M7.34,33.24c0,1.78-1.44,3.22-3.22,3.22c-1.78,0-3.22-1.44-3.22-3.22c0-1.78,1.44-3.22,3.22-3.22
			C5.9,30.02,7.34,31.46,7.34,33.24"/>
		<path class="st0" d="M53.9,44.04v-5.39h-7.51v-7.33h-5.4v20.24c0,7.12,5.79,12.91,12.91,12.91v-5.4c-4.14,0-7.51-3.37-7.51-7.52
			v-7.52H53.9z"/>
	</g>
	<g>
		<path class="st1" d="M71.54,38.64c-2.81,0-5.4,0.91-7.52,2.44v-9.76h-5.39V51.5h0c0,0.02,0,0.03,0,0.05
			c0,7.12,5.79,12.91,12.91,12.91c7.12,0,12.91-5.79,12.91-12.91C84.46,44.43,78.67,38.64,71.54,38.64 M71.54,59.07
			c-4.15,0-7.52-3.37-7.52-7.52c0-4.14,3.37-7.52,7.52-7.52c4.15,0,7.52,3.37,7.52,7.52C79.06,55.7,75.69,59.07,71.54,59.07"/>
		<path class="st1" d="M188.18,64.47c-7.12,0-12.91-5.79-12.91-12.91c0-7.12,5.79-12.91,12.91-12.91c7.12,0,12.91,5.79,12.91,12.91
			v2.7h-19.93c1.09,2.81,3.82,4.82,7.02,4.82V64.47z M181.16,48.85h14.03c-1.09-2.82-3.82-4.82-7.02-4.82
			C184.98,44.04,182.25,46.04,181.16,48.85"/>
		<path class="st1" d="M141.1,31.31h-5.4v9.76c-2.12-1.53-4.71-2.43-7.52-2.43c-7.12,0-12.91,5.79-12.91,12.91
			c0,7.12,5.79,12.91,12.91,12.91c7.12,0,12.91-5.79,12.91-12.91c0-0.01,0-0.03,0-0.05h0V31.31z M128.19,59.07
			c-4.14,0-7.52-3.37-7.52-7.52c0-4.14,3.37-7.52,7.52-7.52c4.14,0,7.52,3.37,7.52,7.52C135.7,55.7,132.33,59.07,128.19,59.07"/>
		<path class="st1" d="M94.02,41.07V38.7h-5.4v25.81h5.4V51.55c0-4.14,3.37-7.51,7.52-7.51v-5.4
			C98.73,38.64,96.14,39.55,94.02,41.07"/>
		<rect x="105.71" y="38.7" class="st1" width="5.39" height="25.81"/>
		<path class="st1" d="M111.62,33.24c0,1.78-1.44,3.22-3.22,3.22c-1.77,0-3.21-1.44-3.21-3.22c0-1.78,1.44-3.22,3.21-3.22
			C110.18,30.02,111.62,31.46,111.62,33.24"/>
		<path class="st1" d="M158.18,38.64c-7.12,0-12.91,5.79-12.91,12.91c0,7.12,5.79,12.91,12.91,12.91c2.81,0,5.4-0.91,7.52-2.44v4.42
			c0,4.14-3.37,7.52-7.52,7.52v5.4c7.12,0,12.91-5.79,12.91-12.91v-14.9C171.09,44.43,165.3,38.64,158.18,38.64 M158.18,59.07
			c-4.14,0-7.52-3.37-7.52-7.52c0-4.14,3.37-7.52,7.52-7.52c4.14,0,7.52,3.37,7.52,7.52C165.7,55.7,162.33,59.07,158.18,59.07"/>
	</g>
	<g>
		<path class="st1" d="M66.77,80.12c-0.73,0-1.39-0.12-2-0.38c-0.6-0.25-1.11-0.58-1.52-0.99c-0.41-0.41-0.74-0.87-0.97-1.38
			c-0.23-0.52-0.34-1.04-0.34-1.57v-1.29c0-0.53,0.11-1.05,0.34-1.57c0.23-0.51,0.55-0.98,0.97-1.38c0.41-0.41,0.92-0.74,1.52-0.99
			c0.6-0.25,1.27-0.38,2-0.38c0.73,0,1.39,0.13,2,0.38c0.6,0.25,1.11,0.58,1.52,0.99c0.41,0.41,0.74,0.87,0.97,1.38
			c0.23,0.52,0.34,1.04,0.34,1.57v1.29c0,0.53-0.11,1.05-0.34,1.57c-0.23,0.51-0.55,0.98-0.97,1.38c-0.42,0.41-0.92,0.74-1.52,0.99
			C68.16,80,67.5,80.12,66.77,80.12z M66.77,71.56c-0.5,0-0.96,0.09-1.37,0.26c-0.42,0.17-0.77,0.4-1.06,0.69
			c-0.29,0.29-0.52,0.61-0.69,0.99c-0.16,0.37-0.25,0.76-0.25,1.16v1.03c0,0.4,0.08,0.79,0.25,1.16c0.16,0.37,0.39,0.7,0.69,0.99
			c0.29,0.29,0.65,0.51,1.06,0.69c0.41,0.17,0.87,0.26,1.37,0.26c0.5,0,0.96-0.09,1.37-0.26c0.41-0.17,0.77-0.4,1.06-0.69
			c0.29-0.29,0.52-0.62,0.69-0.99c0.16-0.37,0.25-0.76,0.25-1.16v-1.03c0-0.4-0.08-0.79-0.25-1.16c-0.16-0.37-0.39-0.7-0.69-0.99
			c-0.29-0.29-0.65-0.52-1.06-0.69C67.73,71.65,67.27,71.56,66.77,71.56z M66.77,87.4h10.96v1.33H65.25v-6.41h1.52V87.4z
			 M77.24,83.38h-1.5V69.35h1.5V83.38z"/>
		<path class="st1" d="M97.6,84.89v1.31H79.58v-1.31H97.6z M95.2,81.13H82.22V70.96h12.81v1.29H83.7v3.15h11.22v1.29H83.7v3.15h11.5
			V81.13z"/>
		<path class="st1" d="M116.13,84.89v1.31H98.11v-1.31H116.13z M113.47,70.92v9.76h-12.7v-9.76h1.48v3.48h9.74v-3.48H113.47z
			 M111.99,79.42V75.7h-9.74v3.71H111.99z"/>
		<path class="st1" d="M119.52,78.69c1.12,0,2.11-0.01,2.99-0.02c0.88-0.01,1.68-0.04,2.41-0.06c0.73-0.03,1.41-0.07,2.05-0.12
			c0.64-0.05,1.28-0.11,1.92-0.18l0.13,1.33c-0.59,0.07-1.22,0.14-1.89,0.19c-0.67,0.06-1.44,0.1-2.31,0.13
			c-0.87,0.03-1.85,0.05-2.95,0.06c-1.1,0.01-2.38,0.02-3.84,0.02v-5.51h7.02v-2.87h-7.02v-1.33h8.5v5.49h-7.02V78.69z
			 M125.92,81.48h1.5v1.24c0,0.44,0.04,0.82,0.12,1.14c0.08,0.32,0.21,0.6,0.39,0.85c0.18,0.25,0.41,0.48,0.7,0.68
			c0.29,0.2,0.64,0.41,1.05,0.62c0.56,0.29,1.21,0.59,1.95,0.92c0.74,0.33,1.44,0.62,2.08,0.88l-0.62,1.22
			c-0.7-0.29-1.4-0.6-2.1-0.93c-0.7-0.34-1.29-0.63-1.78-0.87c-1.43-0.72-2.27-1.34-2.53-1.87c-0.26,0.53-1.1,1.15-2.53,1.87
			c-0.49,0.24-1.08,0.53-1.78,0.87c-0.7,0.34-1.4,0.65-2.1,0.93l-0.64-1.22c0.31-0.13,0.65-0.27,1.02-0.42
			c0.36-0.15,0.72-0.3,1.07-0.46c0.35-0.16,0.69-0.31,1.03-0.47c0.34-0.16,0.65-0.31,0.93-0.45c0.4-0.2,0.74-0.4,1.02-0.6
			c0.28-0.2,0.51-0.43,0.7-0.68c0.19-0.25,0.32-0.54,0.41-0.86c0.09-0.32,0.13-0.7,0.13-1.15V81.48z M132.85,81.86h-1.5V69.35h1.5
			V81.86z"/>
		<path class="st1" d="M146.9,72.49h-4.44v3.13c0,0.42,0.01,0.77,0.04,1.07c0.03,0.3,0.09,0.59,0.17,0.86
			c0.09,0.27,0.21,0.54,0.38,0.8c0.16,0.26,0.39,0.56,0.68,0.89c0.41,0.49,0.93,1.04,1.56,1.65c0.62,0.62,1.33,1.28,2.13,2
			l-0.99,1.01c-0.74-0.69-1.38-1.3-1.92-1.85c-0.54-0.54-1.02-1.04-1.45-1.5c-0.31-0.33-0.6-0.64-0.86-0.94
			c-0.26-0.3-0.42-0.52-0.47-0.66h-0.02c-0.03,0.1-0.1,0.23-0.2,0.39c-0.11,0.16-0.24,0.33-0.39,0.52
			c-0.15,0.19-0.31,0.38-0.48,0.57c-0.17,0.19-0.34,0.38-0.49,0.55c-0.14,0.16-0.34,0.36-0.58,0.61c-0.24,0.25-0.51,0.52-0.8,0.82
			c-0.29,0.29-0.61,0.6-0.94,0.92c-0.34,0.32-0.66,0.62-0.98,0.89l-1.01-1.01c0.69-0.6,1.33-1.19,1.92-1.78
			c0.59-0.59,1.14-1.16,1.64-1.72c0.34-0.39,0.61-0.73,0.82-1.04c0.2-0.31,0.35-0.61,0.46-0.91c0.11-0.3,0.18-0.61,0.21-0.92
			c0.04-0.31,0.05-0.68,0.05-1.09v-3.24h-4.51v-1.33h10.47V72.49z M151.6,88.96h-1.52V69.35h1.52V88.96z"/>
	</g>
	<path class="st2" d="M35.37,37.47c6.58-33.4,34.37-25.66,34.37-25.66c-42.46-19-58.1,25.66-58.1,25.66S22.59,31.09,35.37,37.47z"/>
	<linearGradient id="SVGID_1_" gradientUnits="userSpaceOnUse" x1="35.3539" y1="14.657" x2="123.7449" y2="14.657">
		<stop  offset="0" style="stop-color:#0D63A9"/>
		<stop  offset="1" style="stop-color:#642F85"/>
	</linearGradient>
	<path class="st3" d="M88.34,28.34h35.4c0,0-29.98-43.79-88.39-20.58C35.35,7.76,69.55-5.72,88.34,28.34z"/>
</g>
</svg>
