<?xml version="1.0" encoding="utf-8"?>
<!-- Generator: Adobe Illustrator 28.1.0, SVG Export Plug-In . SVG Version: 6.00 Build 0)  -->
<svg version="1.1" id="_xB7__xB9_ÀÌ_xBE_î_x5F_1"
	 xmlns="http://www.w3.org/2000/svg" xmlns:xlink="http://www.w3.org/1999/xlink" x="0px" y="0px" viewBox="0 0 327.38 305.61"
	 style="enable-background:new 0 0 327.38 305.61;" xml:space="preserve">
<style type="text/css">
	.st0{fill:#C9C8C9;}
</style>
<g>
	<g>
		<g>
			<path class="st0" d="M83.45,144.33H71.38v-29c0-9.28-7.55-16.82-16.82-16.82c-9.27,0-16.81,7.54-16.81,16.82v29H25.67v-29
				c0-15.94,12.96-28.89,28.89-28.89c15.93,0,28.89,12.95,28.89,28.89V144.33z"/>
			<rect x="4.27" y="86.58" class="st0" width="12.07" height="57.75"/>
			<path class="st0" d="M17.5,74.36c0,3.98-3.22,7.2-7.2,7.2c-3.98,0-7.19-3.22-7.19-7.2c0-3.97,3.22-7.2,7.19-7.2
				C14.28,67.16,17.5,70.39,17.5,74.36"/>
			<path class="st0" d="M121.67,98.52V86.45h-16.81V70.06H92.78v45.28c0,15.93,12.96,28.89,28.89,28.89v-12.07
				c-9.27,0-16.81-7.55-16.81-16.82V98.52H121.67z"/>
			<path class="st0" d="M33.16,178.52c-6.28,0-12.08,2.03-16.82,5.45v-21.84H4.27v45.17h0.01c0,0.04-0.01,0.07-0.01,0.11
				c0,15.93,12.96,28.9,28.89,28.9c15.93,0,28.89-12.96,28.89-28.9C62.05,191.48,49.09,178.52,33.16,178.52 M33.16,224.23
				c-9.27,0-16.82-7.55-16.82-16.82c0-9.27,7.55-16.81,16.82-16.81c9.28,0,16.82,7.54,16.82,16.81
				C49.98,216.68,42.44,224.23,33.16,224.23"/>
			<path class="st0" d="M294.11,236.3c-15.93,0-28.89-12.96-28.89-28.9c0-15.93,12.96-28.89,28.89-28.89
				c15.93,0,28.89,12.96,28.89,28.89v6.04h-44.59c2.43,6.3,8.55,10.78,15.7,10.78V236.3z M278.41,201.37h31.39
				c-2.43-6.3-8.55-10.78-15.7-10.78C286.96,190.6,280.84,195.07,278.41,201.37"/>
			<path class="st0" d="M188.78,162.13H176.7v21.83c-4.74-3.41-10.54-5.45-16.81-5.45c-15.93,0-28.89,12.96-28.89,28.89
				c0,15.93,12.96,28.9,28.89,28.9c15.93,0,28.88-12.96,28.88-28.9c0-0.03-0.01-0.07-0.01-0.11h0.01V162.13z M159.89,224.23
				c-9.27,0-16.81-7.55-16.81-16.82c0-9.27,7.54-16.81,16.81-16.81c9.27,0,16.81,7.54,16.81,16.81
				C176.7,216.68,169.16,224.23,159.89,224.23"/>
			<path class="st0" d="M83.45,183.97v-5.31H71.38v57.75h12.07v-29c0-9.27,7.54-16.81,16.82-16.81v-12.07
				C93.99,178.52,88.19,180.56,83.45,183.97"/>
			<rect x="109.6" y="178.66" class="st0" width="12.07" height="57.75"/>
			<path class="st0" d="M122.83,166.43c0,3.97-3.22,7.2-7.2,7.2c-3.97,0-7.19-3.22-7.19-7.2c0-3.97,3.22-7.2,7.19-7.2
				C119.61,159.24,122.83,162.46,122.83,166.43"/>
			<path class="st0" d="M227,178.52c-15.93,0-28.89,12.96-28.89,28.89c0,15.93,12.96,28.9,28.89,28.9c6.28,0,12.07-2.03,16.82-5.45
				v9.88c0,9.27-7.55,16.82-16.82,16.82v12.07c15.94,0,28.89-12.96,28.89-28.89v-33.33C255.89,191.48,242.93,178.52,227,178.52
				 M227,224.23c-9.27,0-16.82-7.55-16.82-16.82c0-9.27,7.55-16.81,16.82-16.81c9.27,0,16.82,7.54,16.82,16.81
				C243.81,216.68,236.27,224.23,227,224.23"/>
		</g>
		<path class="st0" d="M323,159.24c0,0-26.23-109.5-112.82-143.63C170.83,0.1,115.63-4.35,79.02,16.9c0,0,113.56-61.79,152.7,142.34
			H323z"/>
		<path class="st0" d="M159.89,27.86c0,0-26.14-11.8-50.29,1.71C85.7,42.94,79.02,81.15,79.02,81.15s-9.79-6.8-25.99-6.8
			c-14.69,0-26.13,9.87-26.13,9.87S71.38-19.13,159.89,27.86z"/>
	</g>
	<g>
		<path class="st0" d="M24.71,271.46c-1.63,0-3.12-0.28-4.46-0.84c-1.34-0.56-2.48-1.3-3.41-2.21c-0.93-0.91-1.65-1.94-2.16-3.1
			c-0.51-1.15-0.77-2.32-0.77-3.5v-2.88c0-1.18,0.26-2.35,0.77-3.5c0.51-1.15,1.23-2.18,2.16-3.1c0.93-0.91,2.06-1.65,3.41-2.21
			c1.34-0.56,2.83-0.84,4.46-0.84c1.63,0,3.12,0.28,4.46,0.84c1.34,0.56,2.48,1.3,3.41,2.21c0.93,0.91,1.65,1.94,2.16,3.1
			c0.51,1.15,0.77,2.32,0.77,3.5v2.88c0,1.18-0.26,2.35-0.77,3.5c-0.51,1.15-1.23,2.18-2.16,3.1c-0.93,0.91-2.06,1.65-3.41,2.21
			C27.83,271.19,26.34,271.46,24.71,271.46z M24.71,252.31c-1.12,0-2.14,0.19-3.07,0.58c-0.93,0.38-1.72,0.9-2.38,1.54
			c-0.66,0.64-1.17,1.38-1.54,2.21c-0.37,0.83-0.55,1.7-0.55,2.59v2.3c0,0.9,0.18,1.76,0.55,2.59c0.37,0.83,0.88,1.57,1.54,2.21
			c0.66,0.64,1.45,1.15,2.38,1.54c0.93,0.38,1.95,0.58,3.07,0.58c1.12,0,2.14-0.19,3.07-0.58c0.93-0.38,1.72-0.9,2.38-1.54
			c0.66-0.64,1.17-1.38,1.54-2.21c0.37-0.83,0.55-1.7,0.55-2.59v-2.3c0-0.9-0.18-1.76-0.55-2.59c-0.37-0.83-0.88-1.57-1.54-2.21
			c-0.66-0.64-1.45-1.15-2.38-1.54C26.85,252.5,25.83,252.31,24.71,252.31z M24.71,287.74h24.53v2.98H21.3v-14.35h3.41V287.74z
			 M48.13,278.76h-3.36v-31.39h3.36V278.76z"/>
		<path class="st0" d="M93.68,282.12v2.93H53.36v-2.93H93.68z M88.31,273.72H59.27v-22.75h28.66v2.88H62.58v7.06h25.1v2.88h-25.1
			v7.06h25.73V273.72z"/>
		<path class="st0" d="M135.15,282.12v2.93H94.83v-2.93H135.15z M129.2,250.87v21.84h-28.42v-21.84h3.31v7.78h21.79v-7.78H129.2z
			 M125.89,269.88v-8.3H104.1v8.3H125.89z"/>
		<path class="st0" d="M142.74,268.25c2.5,0,4.73-0.02,6.7-0.05c1.97-0.03,3.77-0.08,5.4-0.14c1.63-0.06,3.16-0.15,4.58-0.26
			s2.86-0.25,4.3-0.41l0.29,2.98c-1.31,0.16-2.72,0.3-4.22,0.43c-1.5,0.13-3.22,0.22-5.16,0.29c-1.94,0.06-4.14,0.11-6.6,0.14
			c-2.46,0.03-5.33,0.05-8.59,0.05v-12.34h15.7v-6.43h-15.7v-2.98h19.01v12.29h-15.7V268.25z M157.04,274.49h3.36v2.78
			c0,0.99,0.09,1.84,0.26,2.54c0.18,0.71,0.46,1.34,0.86,1.9c0.4,0.56,0.92,1.06,1.56,1.51c0.64,0.45,1.42,0.91,2.35,1.39
			c1.25,0.64,2.7,1.33,4.37,2.06c1.66,0.74,3.22,1.39,4.66,1.97l-1.39,2.74c-1.57-0.64-3.14-1.34-4.7-2.09
			c-1.57-0.75-2.9-1.4-3.98-1.94c-3.2-1.6-5.09-2.99-5.66-4.18c-0.58,1.18-2.46,2.58-5.66,4.18c-1.09,0.54-2.42,1.19-3.98,1.94
			c-1.57,0.75-3.14,1.45-4.7,2.09l-1.44-2.74c0.7-0.29,1.46-0.6,2.28-0.94c0.82-0.34,1.62-0.68,2.4-1.03
			c0.78-0.35,1.55-0.7,2.3-1.06c0.75-0.35,1.45-0.69,2.09-1.01c0.9-0.45,1.66-0.9,2.28-1.34c0.62-0.45,1.14-0.95,1.56-1.51
			c0.42-0.56,0.72-1.2,0.91-1.92c0.19-0.72,0.29-1.58,0.29-2.57V274.49z M172.55,275.35h-3.36v-27.98h3.36V275.35z"/>
		<path class="st0" d="M203.99,254.38h-9.94v7.01c0,0.93,0.03,1.73,0.1,2.4s0.19,1.31,0.38,1.92c0.19,0.61,0.47,1.21,0.84,1.8
			c0.37,0.59,0.87,1.26,1.51,1.99c0.93,1.09,2.09,2.32,3.48,3.7c1.39,1.38,2.98,2.86,4.78,4.46l-2.21,2.26
			c-1.66-1.54-3.1-2.91-4.3-4.13s-2.28-2.34-3.24-3.36c-0.7-0.74-1.34-1.44-1.92-2.11c-0.58-0.67-0.93-1.17-1.06-1.49h-0.05
			c-0.06,0.22-0.22,0.51-0.46,0.86c-0.24,0.35-0.53,0.74-0.86,1.15c-0.34,0.42-0.7,0.84-1.08,1.27c-0.38,0.43-0.75,0.84-1.1,1.22
			c-0.32,0.35-0.75,0.81-1.3,1.37c-0.54,0.56-1.14,1.17-1.8,1.82s-1.36,1.34-2.11,2.06c-0.75,0.72-1.48,1.38-2.18,1.99l-2.26-2.26
			c1.54-1.34,2.97-2.67,4.3-3.98c1.33-1.31,2.55-2.59,3.67-3.84c0.77-0.86,1.38-1.64,1.82-2.33c0.45-0.69,0.79-1.37,1.03-2.04
			s0.4-1.36,0.48-2.06s0.12-1.52,0.12-2.45v-7.25h-10.08v-2.98h23.42V254.38z M214.5,291.24h-3.41v-43.87h3.41V291.24z"/>
	</g>
</g>
</svg>
