<?xml version="1.0" encoding="utf-8"?>
<!-- Generator: Adobe Illustrator 28.1.0, SVG Export Plug-In . SVG Version: 6.00 Build 0)  -->
<svg version="1.1" id="레이어_1" xmlns="http://www.w3.org/2000/svg" xmlns:xlink="http://www.w3.org/1999/xlink" x="0px"
	 y="0px" viewBox="0 0 122.5 80.5" style="enable-background:new 0 0 122.5 80.5;" xml:space="preserve">
<style type="text/css">
	.st0{fill:#00A0E4;}
</style>
<path class="st0" d="M82.1,78.9H70v-29c0-9.3-7.5-16.8-16.8-16.8s-16.8,7.5-16.8,16.8v29H24.3v-29c0-15.9,13-28.9,28.9-28.9
	s28.9,13,28.9,28.9V78.9z"/>
<rect x="2.9" y="21.1" class="st0" width="12.1" height="57.8"/>
<path class="st0" d="M16.1,8.9c0,4-3.2,7.2-7.2,7.2s-7.2-3.2-7.2-7.2c0-4,3.2-7.2,7.2-7.2C12.9,1.7,16.1,4.9,16.1,8.9"/>
<path class="st0" d="M120.3,33.1V21h-16.8V4.6H91.4v45.3c0,15.9,13,28.9,28.9,28.9V66.7c-9.3,0-16.8-7.5-16.8-16.8V33.1H120.3z"/>
</svg>
